<svg>
<symbol id="icon-search" xmlns="http://www.w3.org/2000/svg" viewBox="0 0 24 24"><path  d="M9.5 3A6.5 6.5 0 0 1 16 9.5c0 1.61-.59 3.09-1.56 4.23l.27.27h.79l5 5l-1.5 1.5l-5-5v-.79l-.27-.27A6.516 6.516 0 0 1 9.5 16A6.5 6.5 0 0 1 3 9.5A6.5 6.5 0 0 1 9.5 3m0 2C7 5 5 7 5 9.5S7 14 9.5 14S14 12 14 9.5S12 5 9.5 5Z"/></symbol>
<symbol id="icon-user" xmlns="http://www.w3.org/2000/svg" viewBox="0 0 24 24"><path d="M12 4a4 4 0 0 1 4 4a4 4 0 0 1-4 4a4 4 0 0 1-4-4a4 4 0 0 1 4-4m0 2a2 2 0 0 0-2 2a2 2 0 0 0 2 2a2 2 0 0 0 2-2a2 2 0 0 0-2-2m0 7c2.67 0 8 1.33 8 4v3H4v-3c0-2.67 5.33-4 8-4m0 1.9c-2.97 0-6.1 1.46-6.1 2.1v1.1h12.2V17c0-.64-3.13-2.1-6.1-2.1Z"/></symbol>
<symbol id="icon-user-out" xmlns="http://www.w3.org/2000/svg" viewBox="0 0 32 32"><path d="M6 30h12a2.002 2.002 0 0 0 2-2v-3h-2v3H6V4h12v3h2V4a2.002 2.002 0 0 0-2-2H6a2.002 2.002 0 0 0-2 2v24a2.002 2.002 0 0 0 2 2"/><path d="M20.586 20.586L24.172 17H10v-2h14.172l-3.586-3.586L22 10l6 6l-6 6z"/></symbol>
<symbol id="icon-heart" xmlns="http://www.w3.org/2000/svg" viewBox="0 0 24 24"><path d="m12.1 18.55l-.1.1l-.11-.1C7.14 14.24 4 11.39 4 8.5C4 6.5 5.5 5 7.5 5c1.54 0 3.04 1 3.57 2.36h1.86C13.46 6 14.96 5 16.5 5c2 0 3.5 1.5 3.5 3.5c0 2.89-3.14 5.74-7.9 10.05M16.5 3c-1.74 0-3.41.81-4.5 2.08C10.91 3.81 9.24 3 7.5 3C4.42 3 2 5.41 2 8.5c0 3.77 3.4 6.86 8.55 11.53L12 21.35l1.45-1.32C18.6 15.36 22 12.27 22 8.5C22 5.41 19.58 3 16.5 3Z"/></symbol>
<symbol id="icon-bag" xmlns="http://www.w3.org/2000/svg" viewBox="0 0 24 24"><path d="M19 6h-2c0-2.8-2.2-5-5-5S7 3.2 7 6H5c-1.1 0-2 .9-2 2v12c0 1.1.9 2 2 2h14c1.1 0 2-.9 2-2V8c0-1.1-.9-2-2-2m-7-3c1.7 0 3 1.3 3 3H9c0-1.7 1.3-3 3-3m7 17H5V8h14v12m-7-8c-1.7 0-3-1.3-3-3H7c0 2.8 2.2 5 5 5s5-2.2 5-5h-2c0 1.7-1.3 3-3 3Z"/></symbol>
<symbol id="icon-burger" xmlns="http://www.w3.org/2000/svg" viewBox="0 0 24 24"><path stroke-linecap="round" stroke-linejoin="round" d="M3 6.001h18m-18 6h18m-18 6h18"/></symbol>
<symbol id="icon-close" xmlns="http://www.w3.org/2000/svg" viewBox="0 0 24 24"><path stroke-linecap="round" stroke-linejoin="round" d="m7 7l10 10M7 17L17 7"/></symbol>
<symbol id="icon-mail" xmlns="http://www.w3.org/2000/svg" viewBox="-2 -2 27 29"><path d="M1.75 3h20.5c.966 0 1.75.784 1.75 1.75v14a1.75 1.75 0 0 1-1.75 1.75H1.75A1.75 1.75 0 0 1 0 18.75v-14C0 3.784.784 3 1.75 3ZM1.5 7.412V18.75c0 .138.112.25.25.25h20.5a.25.25 0 0 0 .25-.25V7.412l-9.52 6.433c-.592.4-1.368.4-1.96 0Zm0-2.662v.852l10.36 7a.25.25 0 0 0 .28 0l10.36-7V4.75a.25.25 0 0 0-.25-.25H1.75a.25.25 0 0 0-.25.25Z"/></symbol>
<symbol id="icon-call" xmlns="http://www.w3.org/2000/svg" viewBox="0 0 24 24"><g fill="none"><path stroke="#fff" stroke-linecap="round" stroke-width="1.5" d="M13.5 2s2.334.212 5.303 3.182c2.97 2.97 3.182 5.303 3.182 5.303m-7.778-4.949s.99.282 2.475 1.767c1.485 1.485 1.768 2.475 1.768 2.475"/><path fill="#fff" d="m15.1 15.027l-.543-.516l.544.516Zm.456-.48l.544.517l-.544-.516Zm2.417-.335l-.374.65l.374-.65Zm1.91 1.1l-.374.65l.374-.65Zm.539 3.446l.543.517l-.543-.517Zm-1.42 1.496l-.545-.517l.544.517Zm-1.326.71l.074.745l-.074-.746Zm-9.86-4.489l.543-.516l-.544.516Zm-4.813-9.51l-.749.041l.749-.04Zm6.475 1.538l.543.517l-.543-.517Zm.156-2.81l.613-.433l-.613.433ZM8.374 3.91l-.613.433l.612-.433ZM5.26 3.609l.544.516l-.544-.516ZM3.691 5.26l-.543-.516l.544.516Zm7.372 7.795l.544-.517l-.544.517Zm4.582 2.488l.455-.48l-1.088-1.033l-.455.48l1.088 1.033Zm1.954-.682l1.91 1.1l.748-1.3l-1.91-1.1l-.748 1.3Zm2.279 3.38l-1.42 1.495l1.087 1.034l1.42-1.496l-1.087-1.033Zm-2.275 1.975c-1.435.141-5.18.02-9.244-4.258l-1.087 1.033c4.429 4.663 8.654 4.898 10.478 4.717l-.147-1.492Zm-9.244-4.258c-3.876-4.081-4.526-7.523-4.607-9.033l-1.498.08c.1 1.85.884 5.634 5.018 9.986l1.087-1.033Zm1.376-6.637l.286-.302l-1.087-1.033l-.287.302l1.088 1.033Zm.512-4.062L8.986 3.477l-1.225.866l1.26 1.783l1.226-.866Zm-5.53-2.168L3.149 4.745l1.088 1.033l1.57-1.653l-1.088-1.033Zm4.474 5.713a38.223 38.223 0 0 0-.545-.515l-.002.002l-.003.003a.822.822 0 0 0-.05.058a1.592 1.592 0 0 0-.23.427c-.098.275-.15.639-.084 1.093c.13.892.715 2.091 2.242 3.7l1.088-1.034c-1.428-1.503-1.78-2.428-1.846-2.884c-.032-.22 0-.335.013-.372l.008-.019a.249.249 0 0 1-.028.037a.705.705 0 0 1-.018.02s-.002 0-.545-.516Zm1.328 4.767c1.523 1.604 2.673 2.234 3.55 2.377c.451.073.816.014 1.092-.095a1.52 1.52 0 0 0 .421-.25a.922.922 0 0 0 .036-.034l.014-.014a.369.369 0 0 0 .007-.006l.003-.003l.001-.002s.002-.001-.542-.518c-.544-.516-.543-.517-.543-.518l.002-.001l.002-.003a.241.241 0 0 0 .005-.005l.01-.01a.446.446 0 0 1 .037-.032c.01-.006.009-.004-.004.001c-.02.008-.11.04-.3.009c-.402-.066-1.27-.42-2.703-1.929l-1.088 1.033ZM8.986 3.477C7.972 2.043 5.944 1.8 4.718 3.092l1.087 1.033c.523-.55 1.444-.507 1.956.218l1.225-.866ZM3.752 6.926c-.022-.4.152-.8.484-1.148L3.148 4.745c-.536.564-.943 1.347-.894 2.261l1.498-.08Zm14.705 12.811c-.279.294-.57.452-.854.48l.147 1.492c.747-.073 1.352-.472 1.795-.939l-1.088-1.032ZM10.021 9.02c.968-1.019 1.036-2.613.226-3.76l-1.225.866c.422.597.357 1.392-.088 1.86L10.02 9.02Zm9.488 6.942c.821.473.982 1.635.369 2.28l1.087 1.033c1.305-1.374.925-3.673-.707-4.613l-.749 1.3Zm-3.409-.898c.385-.406.986-.497 1.499-.202l.748-1.3c-1.099-.632-2.46-.45-3.335.47l1.088 1.032Z"/></g></symbol>
<symbol id="icon-phone" xmlns="http://www.w3.org/2000/svg" viewBox="0 0 256 256"><path d="m222.37 158.46l-47.11-21.11l-.13-.06a16 16 0 0 0-15.17 1.4a8.12 8.12 0 0 0-.75.56L134.87 160c-15.42-7.49-31.34-23.29-38.83-38.51l20.78-24.71c.2-.25.39-.5.57-.77a16 16 0 0 0 1.32-15.06v-.12L97.54 33.64a16 16 0 0 0-16.62-9.52A56.26 56.26 0 0 0 32 80c0 79.4 64.6 144 144 144a56.26 56.26 0 0 0 55.88-48.92a16 16 0 0 0-9.51-16.62ZM176 208A128.14 128.14 0 0 1 48 80a40.2 40.2 0 0 1 34.87-40a.61.61 0 0 0 0 .12l21 47l-20.67 24.74a6.13 6.13 0 0 0-.57.77a16 16 0 0 0-1 15.7c9.06 18.53 27.73 37.06 46.46 46.11a16 16 0 0 0 15.75-1.14a8.44 8.44 0 0 0 .74-.56L168.89 152l47 21.05h.11A40.21 40.21 0 0 1 176 208Z"/></symbol>
<symbol id="icon-face" xmlns="http://www.w3.org/2000/svg" viewBox="0 0 24 24"><path d="M14 13.5h2.5l1-4H14v-2c0-1.03 0-2 2-2h1.5V2.14c-.326-.043-1.557-.14-2.857-.14C11.928 2 10 3.657 10 6.7v2.8H7v4h3V22h4v-8.5Z"/></symbol>
<symbol id="icon-ins" xmlns="http://www.w3.org/2000/svg" viewBox="0 0 24 24"><path d="M12.001 9a3 3 0 1 0 0 6a3 3 0 0 0 0-6Zm0-2a5 5 0 1 1 0 10a5 5 0 0 1 0-10Zm6.5-.25a1.25 1.25 0 0 1-2.5 0a1.25 1.25 0 0 1 2.5 0ZM12.001 4c-2.474 0-2.878.007-4.029.058c-.784.037-1.31.142-1.798.332a2.886 2.886 0 0 0-1.08.703a2.89 2.89 0 0 0-.704 1.08c-.19.49-.295 1.015-.331 1.798C4.007 9.075 4 9.461 4 12c0 2.475.007 2.878.058 4.029c.037.783.142 1.31.331 1.797c.17.435.37.748.702 1.08c.337.336.65.537 1.08.703c.494.191 1.02.297 1.8.333C9.075 19.994 9.461 20 12 20c2.475 0 2.878-.007 4.029-.058c.782-.037 1.308-.142 1.797-.331a2.91 2.91 0 0 0 1.08-.703c.337-.336.538-.649.704-1.08c.19-.492.296-1.018.332-1.8c.052-1.103.058-1.49.058-4.028c0-2.474-.007-2.878-.058-4.029c-.037-.782-.143-1.31-.332-1.798a2.912 2.912 0 0 0-.703-1.08a2.884 2.884 0 0 0-1.08-.704c-.49-.19-1.016-.295-1.798-.331C14.926 4.006 14.54 4 12 4Zm0-2c2.717 0 3.056.01 4.123.06c1.064.05 1.79.217 2.427.465c.66.254 1.216.598 1.772 1.153a4.908 4.908 0 0 1 1.153 1.772c.247.637.415 1.363.465 2.428c.047 1.066.06 1.405.06 4.122c0 2.717-.01 3.056-.06 4.122c-.05 1.065-.218 1.79-.465 2.428a4.884 4.884 0 0 1-1.153 1.772a4.915 4.915 0 0 1-1.772 1.153c-.637.247-1.363.415-2.427.465c-1.067.047-1.406.06-4.123.06c-2.717 0-3.056-.01-4.123-.06c-1.064-.05-1.789-.218-2.427-.465a4.89 4.89 0 0 1-1.772-1.153a4.905 4.905 0 0 1-1.153-1.772c-.248-.637-.415-1.363-.465-2.428c-.048-1.066-.06-1.405-.06-4.122c0-2.717.01-3.056.06-4.122c.05-1.066.217-1.79.465-2.428a4.88 4.88 0 0 1 1.153-1.772a4.897 4.897 0 0 1 1.772-1.153c.637-.248 1.362-.415 2.427-.465C8.945 2.013 9.284 2 12.001 2Z"/></symbol>
<symbol id="icon-tik" xmlns="http://www.w3.org/2000/svg" viewBox="0 0 24 24"><path d="M16 8.245V15.5a6.5 6.5 0 1 1-5-6.326v3.163a3.5 3.5 0 1 0 2 3.163V2h3a5 5 0 0 0 5 5v3a7.966 7.966 0 0 1-5-1.755Z"/></symbol>
<symbol id="icon-local" xmlns="http://www.w3.org/2000/svg" viewBox="0 0 24 24"><path d="M12 11.5A2.5 2.5 0 0 1 9.5 9A2.5 2.5 0 0 1 12 6.5A2.5 2.5 0 0 1 14.5 9a2.5 2.5 0 0 1-2.5 2.5M12 2a7 7 0 0 0-7 7c0 5.25 7 13 7 13s7-7.75 7-13a7 7 0 0 0-7-7Z"/></symbol>
<symbol id="icon-add-cart" xmlns="http://www.w3.org/2000/svg" viewBox="0 0 24 24"><path  d="M6.01 16.136L4.141 4H3a1 1 0 0 1 0-2h1.985a.993.993 0 0 1 .66.235a.997.997 0 0 1 .346.627L6.319 5H14v2H6.627l1.23 8h9.399l1.5-5h2.088l-1.886 6.287A1 1 0 0 1 18 17H7.016a.993.993 0 0 1-.675-.248a.998.998 0 0 1-.332-.616zM10 20a2 2 0 1 1-4 0a2 2 0 0 1 4 0m9 0a2 2 0 1 1-4 0a2 2 0 0 1 4 0m0-18a1 1 0 0 1 1 1v1h1a1 1 0 1 1 0 2h-1v1a1 1 0 1 1-2 0V6h-1a1 1 0 1 1 0-2h1V3a1 1 0 0 1 1-1"/></symbol>
<symbol id="icon-heart-fill" xmlns="http://www.w3.org/2000/svg" viewBox="0 0 24 24"><path d="m12 21.35l-1.45-1.32C5.4 15.36 2 12.27 2 8.5C2 5.41 4.42 3 7.5 3c1.74 0 3.41.81 4.5 2.08C13.09 3.81 14.76 3 16.5 3C19.58 3 22 5.41 22 8.5c0 3.77-3.4 6.86-8.55 11.53z"/></symbol>

</svg>